<svg width="16" height="16" viewBox="0 0 16 16" fill="none" xmlns="http://www.w3.org/2000/svg">
<path d="M5.40305 7.48254C5.16363 7.48219 4.9341 7.58333 4.76597 7.76326C4.41923 8.12087 4.41037 8.70665 4.74612 9.07576L6.64248 10.7392C6.80254 10.9076 7.01979 11.0016 7.24583 11C7.48591 10.9992 7.71597 10.8983 7.88589 10.7193L11.2311 6.57333C11.4029 6.39612 11.4998 6.15334 11.5 5.8998C11.5013 5.66091 11.4121 5.43139 11.2521 5.26238C11.0922 5.09336 10.8749 4.99889 10.6486 5.00001C10.4081 5.00063 10.178 5.10287 10.0095 5.28388L7.29445 8.76151L6.00441 7.74231C5.84459 7.57473 5.62832 7.48093 5.40305 7.48149V7.48254Z" fill="#1EB676"/>
</svg>
