<svg width="16" height="16" viewBox="0 0 16 16" fill="none" xmlns="http://www.w3.org/2000/svg">
<path d="M15.4982 8.00007C15.4982 12.1422 12.1407 15.4999 7.99912 15.4999C3.85751 15.4999 0.5 12.1422 0.5 8.00007C0.5 3.85799 3.85751 0.500244 7.99912 0.500244C12.1407 0.500244 15.4982 3.85799 15.4982 8.00007Z" fill="white" stroke="#E9E9F0"/>
<path fill-rule="evenodd" clip-rule="evenodd" d="M15.9304 6.95557H9.04427V0.0677221C8.35166 -0.022574 7.65026 -0.022574 6.95765 0.0677221V6.95557H0.0704017C-0.0198865 7.64825 -0.0198865 8.34971 0.0704017 9.04238H6.95765V15.9302C7.65026 16.0205 8.35166 16.0205 9.04427 15.9302V9.04238H15.9315C16.0218 8.34971 16.0218 7.64825 15.9315 6.95557H15.9304ZM4.87141 3.82564V2.78223H3.82809V3.82564H2.78478V4.86904H3.82809V5.91244H4.87141V4.86904H5.91472V3.82564H4.87141ZM12.1735 2.78223V3.82564H13.2214V4.86904H12.1781V5.91244H11.1348V4.86904H10.0914V3.82564H11.1348V2.78223H12.1735ZM4.87141 11.1324V10.089H3.82809V11.1324H2.78478V12.1758H3.82809V13.2192H4.87141V12.1758H5.91472V11.1324H4.87141ZM12.1735 10.089V11.1324H13.2214V12.1758H12.1781V13.2192H11.1348V12.1758H10.0914V11.1324H11.1348V10.089H12.1735Z" fill="#FF3B30"/>
</svg>
