<svg width="16" height="16" viewBox="0 0 16 16" fill="none" xmlns="http://www.w3.org/2000/svg">
<path fill-rule="evenodd" clip-rule="evenodd" d="M8.68574 2.1679C8.51267 2.29346 8.3477 2.43458 8.19095 2.5894L8.0626 2.72088L8 2.78989L7.9374 2.72088L7.80905 2.5894C7.6523 2.43458 7.48733 2.29346 7.31426 2.1679C6.73288 1.74614 6.06008 1.5 5.3 1.5C2.58473 1.5 1 3.87655 1 6.304C1 8.67851 2.19139 10.7406 4.13701 12.4002C5.50533 13.5673 7.2954 14.5 8 14.5C8.705 14.5 10.495 13.5674 11.8633 12.4002C13.8088 10.7406 15 8.67852 15 6.304C15 3.87655 13.4153 1.5 10.7 1.5C9.93992 1.5 9.26711 1.74614 8.68574 2.1679Z" fill="#FD4100"/>
</svg>
