<svg width="26" height="24" viewBox="0 0 26 24" fill="none" xmlns="http://www.w3.org/2000/svg">
<rect width="26" height="24" rx="12" fill="#F2F3F6"/>
<path d="M16.9143 17V15.3223H13.2511C12.6258 15.3223 12.078 15.1699 11.6078 14.8651C11.1376 14.5603 10.7745 14.1306 10.5185 13.5762C10.2624 13.0218 10.1344 12.3797 10.1344 11.6501C10.1344 10.8581 10.2489 10.2004 10.4778 9.67719C10.7068 9.15396 11.0773 8.74834 11.5894 8.46032V11.8085H12.483V8.19391C12.6307 8.16511 12.7907 8.15071 12.9631 8.15071C13.1305 8.15071 13.2979 8.16511 13.4653 8.19391V11.8085H14.3589V8.46032C14.8858 8.74354 15.2637 9.15396 15.4926 9.69159C15.7216 10.2292 15.836 10.9349 15.836 11.8085H18C18 10.9733 17.8535 10.204 17.5606 9.50078C17.2676 8.79754 16.8466 8.20231 16.2976 7.71508C15.7486 7.22785 15.1024 6.89063 14.3589 6.70342V6H13.4653V6.54502L13.229 6.53781C13.1748 6.53301 13.096 6.53061 12.9926 6.53061C12.7612 6.53061 12.5913 6.53541 12.483 6.54502V6H11.5894V6.70342C10.8705 6.89063 10.2403 7.21585 9.69867 7.67908C9.15707 8.1423 8.73855 8.69554 8.44313 9.33877C8.14771 9.98201 8 10.6588 8 11.3693C8 11.9165 8.07632 12.4493 8.22895 12.9678C8.38159 13.4862 8.60561 13.9506 8.90103 14.3611C9.19646 14.7715 9.5485 15.0919 9.95716 15.3223V15.3799H8.54653V17H16.9143Z" fill="#272A37"/>
</svg>
