<svg width="16" height="16" viewBox="0 0 16 16" fill="none" xmlns="http://www.w3.org/2000/svg">
<path d="M5.97272 14H3.13896C2.83715 13.9996 2.54782 13.8795 2.33441 13.6661C2.12099 13.4527 2.00091 13.1633 2.00049 12.8615V10.2233C2.00045 10.0743 2.02988 9.92687 2.08708 9.78937C2.14428 9.65186 2.22812 9.52704 2.33378 9.42208L9.41857 2.33328C9.6322 2.11987 9.9218 2 10.2238 2C10.5257 2 10.8153 2.11987 11.0289 2.33328L13.6664 4.97155C13.8798 5.18517 13.9997 5.47478 13.9997 5.77673C13.9997 6.07869 13.8798 6.36829 13.6664 6.58191L7.58228 12.6668H13.0567C13.2335 12.6668 13.403 12.7371 13.5281 12.8621C13.6531 12.9871 13.7233 13.1566 13.7233 13.3334C13.7233 13.5102 13.6531 13.6798 13.5281 13.8048C13.403 13.9298 13.2335 14 13.0567 14H5.97272ZM3.33364 12.6668H4.36316L3.33364 11.6373V12.6668ZM5.97352 12.3912L10.7301 7.63466L8.36663 5.27119L3.61005 10.0278L5.97352 12.3912ZM11.6723 6.69248L12.588 5.77673L10.2246 3.41326L9.30801 4.32901L11.6723 6.69248Z" fill="#6F7383"/>
</svg>
